# xmcd
#
# Track frame offsets:
#	187
#	13167
#	24995
#	36832
#	48435
#	59805
#	71645
#	81742
#	94205
#	106040
#	118130
#	128365
#	139562
#	148297
#	158817
#	170795
#	184280
#	196745
#	207055
#	218275
#
# Disc length: 3065 seconds
#
# Revision: 3
# Processed by: cddbd v1.5.2PL0 Copyright (c) Steve Scherf et al.
# Submitted via: EasyCDDAExtractor 15.2.5.1
#
DISCID=230bf714
DTITLE=Hank Snow - Snow Country
DYEAR=1992
DGENRE=Country
TTITLE0=I'm Movin' On
TTITLE1=The Restless One
TTITLE2=Ninety Miles An Hour (Down A Dead End Street)
TTITLE3=I Stepped Over The Line
TTITLE4=(Now And Then, There's) A Fool Such As I
TTITLE5=Tangled Mind
TTITLE6=Breakfast With The Blues
TTITLE7=Yellow Roses
TTITLE8=Whispering Rain
TTITLE9=Miller's Cave
TTITLE10=Big Wheels
TTITLE11=Cryin', Prayin', Waitin', Hopin'
TTITLE12=A Woman Captured Me
TTITLE13=Conscience I'm Guilty
TTITLE14=Married By The Bible, Divorced By The Law
TTITLE15=I Don't Hurt Anymore
TTITLE16=I've Cried A Mile
TTITLE17=You Take The Future (And I'll Take The Past)
TTITLE18=Doggone That Train
TTITLE19=The Last Ride
EXTD=
EXTT0=
EXTT1=
EXTT2=
EXTT3=
EXTT4=
EXTT5=
EXTT6=
EXTT7=
EXTT8=
EXTT9=
EXTT10=
EXTT11=
EXTT12=
EXTT13=
EXTT14=
EXTT15=
EXTT16=
EXTT17=
EXTT18=
EXTT19=
PLAYORDER=
